<svg width="30" height="30" viewBox="0 0 30 30" fill="none" xmlns="http://www.w3.org/2000/svg">
<path d="M14.9742 -0.00430298C12.0691 0.00121663 9.22827 0.851433 6.79778 2.44279C4.3673 4.03414 2.45203 6.29794 1.28528 8.95846C0.118523 11.619 -0.249364 14.5614 0.226427 17.4273C0.702218 20.2931 2.00115 22.9588 3.96501 25.0996V25.0996C5.36763 26.62 7.06996 27.8334 8.96473 28.6633C10.8595 29.4932 12.9056 29.9217 14.9742 29.9217C17.0427 29.9217 19.0889 29.4932 20.9836 28.6633C22.8784 27.8334 24.5807 26.62 25.9833 25.0996V25.0996C27.9472 22.9588 29.2461 20.2931 29.7219 17.4273C30.1977 14.5614 29.8298 11.619 28.6631 8.95846C27.4963 6.29794 25.5811 4.03414 23.1506 2.44279C20.7201 0.851433 17.8793 0.00121663 14.9742 -0.00430298V-0.00430298ZM14.9742 26.9569C11.8713 26.9522 8.8913 25.7441 6.66113 23.5868C7.33823 21.9384 8.49005 20.5286 9.97025 19.5364C11.4505 18.5442 13.1922 18.0145 14.9742 18.0145C16.7562 18.0145 18.4979 18.5442 19.9781 19.5364C21.4583 20.5286 22.6101 21.9384 23.2872 23.5868C21.0571 25.7441 18.077 26.9522 14.9742 26.9569ZM11.9785 11.9785C11.9785 11.386 12.1542 10.8068 12.4834 10.3141C12.8125 9.82151 13.2804 9.43754 13.8278 9.21081C14.3752 8.98407 14.9775 8.92475 15.5586 9.04033C16.1397 9.15592 16.6735 9.44124 17.0925 9.86019C17.5114 10.2791 17.7967 10.8129 17.9123 11.394C18.0279 11.9751 17.9686 12.5775 17.7418 13.1249C17.5151 13.6723 17.1311 14.1401 16.6385 14.4693C16.1459 14.7985 15.5667 14.9742 14.9742 14.9742C14.1797 14.9742 13.4177 14.6585 12.8559 14.0967C12.2941 13.5349 11.9785 12.773 11.9785 11.9785ZM25.3243 20.9655C23.986 18.6765 21.9263 16.8959 19.4677 15.9028C20.2304 15.0381 20.7273 13.9716 20.8989 12.8314C21.0704 11.6912 20.9094 10.5257 20.435 9.47481C19.9606 8.4239 19.193 7.5322 18.2244 6.90671C17.2557 6.28122 16.1272 5.94851 14.9742 5.94851C13.8212 5.94851 12.6926 6.28122 11.724 6.90671C10.7554 7.5322 9.9878 8.4239 9.51341 9.47481C9.03901 10.5257 8.87793 11.6912 9.04949 12.8314C9.22106 13.9716 9.71799 15.0381 10.4806 15.9028C8.02207 16.8959 5.96234 18.6765 4.62406 20.9655C3.55751 19.1488 2.99399 17.0808 2.99141 14.9742C2.99141 11.7961 4.25388 8.74827 6.50108 6.50106C8.74829 4.25386 11.7962 2.99139 14.9742 2.99139C18.1522 2.99139 21.2001 4.25386 23.4473 6.50106C25.6945 8.74827 26.9569 11.7961 26.9569 14.9742C26.9544 17.0808 26.3908 19.1488 25.3243 20.9655V20.9655Z" fill="white"/>
</svg>
